<?xml version="1.0" encoding="utf-8"?>
<!-- Generator: Adobe Illustrator 24.2.3, SVG Export Plug-In . SVG Version: 6.00 Build 0)  -->
<svg version="1.1" id="Layer_1" xmlns="http://www.w3.org/2000/svg" xmlns:xlink="http://www.w3.org/1999/xlink" x="0px" y="0px"
	 viewBox="0 0 232.4 68.2" style="enable-background:new 0 0 232.4 68.2;" xml:space="preserve">
<style type="text/css">
	.st0{fill:none;}
	.st1{enable-background:new    ;}
</style>
<rect class="st0" width="256.6" height="74.9"/>
<g class="st1">
	<path d="M18.8,1.2h10.6l18.6,51H35.5l-3.8-11H16.4l-3.7,11H0.2L18.8,1.2z M30.1,33.2l-6-18.1L18,33.2H30.1z"/>
	<path d="M76.1,53.3c-2.9,0-5.4-0.6-7.5-1.8c-2.1-1.2-4.6-5-4.6-5v21.8H52v-53h10v5.7c1.6-2.2,3.3-3.8,5.4-5
		c2.1-1.2,4.6-1.8,7.5-1.8c2.5,0,4.9,0.5,7,1.5c2.1,1,4,2.4,5.5,4.1c1.6,1.8,2.8,3.8,3.7,6.2c0.9,2.4,1.3,4.9,1.3,7.7
		c0,2.8-0.4,5.4-1.2,7.8c-0.8,2.4-1.9,4.5-3.4,6.2s-3.2,3.1-5.2,4.1S78.5,53.3,76.1,53.3z M72.5,43.6c1.2,0,2.4-0.3,3.4-0.8
		c1-0.6,1.9-1.3,2.7-2.2c0.8-0.9,1.4-2,1.8-3.2c0.4-1.2,0.6-2.5,0.6-3.9c0-1.4-0.2-2.7-0.7-3.9c-0.5-1.2-1.1-2.2-1.9-3.1
		s-1.8-1.5-2.9-2c-1.1-0.5-2.3-0.7-3.6-0.7c-1.6,0-3.1,0.5-4.6,1.4c-1.5,0.9-2.6,2.2-3.3,3.8v7.8c0.8,1.9,1.9,3.5,3.5,4.8
		C69.1,42.9,70.7,43.6,72.5,43.6z"/>
	<path d="M116.3,53.3c-3.2,0-6.1-0.5-8.6-1.6c-2.5-1.1-4.6-2.5-6.4-4.3c-1.7-1.8-3-3.9-3.9-6.3c-0.9-2.4-1.3-4.9-1.3-7.5
		s0.4-5.1,1.3-7.5c0.9-2.4,2.2-4.5,3.9-6.3s3.9-3.2,6.4-4.3s5.4-1.6,8.6-1.6c3.2,0,6.1,0.5,8.6,1.6s4.6,2.5,6.3,4.3
		c1.7,1.8,3,3.9,4,6.3c0.9,2.4,1.4,4.9,1.4,7.5s-0.4,5.1-1.3,7.5c-0.9,2.4-2.2,4.5-3.9,6.3c-1.7,1.8-3.9,3.2-6.4,4.3
		C122.4,52.8,119.5,53.3,116.3,53.3z M107.9,33.7c0,3,0.8,5.4,2.4,7.2s3.6,2.7,6,2.7c1.2,0,2.3-0.2,3.3-0.7c1-0.5,1.9-1.2,2.6-2
		c0.7-0.9,1.3-1.9,1.8-3.1c0.4-1.2,0.6-2.6,0.6-4c0-3-0.8-5.4-2.4-7.2c-1.6-1.8-3.6-2.7-6-2.7c-1.2,0-2.3,0.2-3.3,0.7
		c-1,0.5-1.9,1.2-2.7,2c-0.7,0.9-1.3,1.9-1.8,3.1C108.1,30.9,107.9,32.3,107.9,33.7z"/>
	<path d="M142,0.2h12v39.1c0,2.9,1.3,4.3,3.8,4.3c0.6,0,1.3-0.1,2-0.3c0.7-0.2,1.4-0.4,2-0.8l1.6,8.6c-1.5,0.7-3.2,1.2-5.2,1.6
		c-1.9,0.4-3.8,0.6-5.5,0.6c-3.4,0-6.1-0.9-7.9-2.6c-1.9-1.7-2.8-4.2-2.8-7.5V0.2z"/>
	<path d="M166,0.2h12v39.1c0,2.9,1.3,4.3,3.8,4.3c0.6,0,1.3-0.1,2-0.3c0.7-0.2,1.4-0.4,2-0.8l1.6,8.6c-1.5,0.7-3.2,1.2-5.2,1.6
		s-3.8,0.6-5.5,0.6c-3.5,0-6.1-0.9-8-2.6c-1.9-1.7-2.8-4.2-2.8-7.5V0.2z"/>
	<path d="M208.4,53.3c-3.2,0-6.1-0.5-8.6-1.6c-2.5-1.1-4.6-2.5-6.4-4.3c-1.7-1.8-3-3.9-3.9-6.3c-0.9-2.4-1.3-4.9-1.3-7.5
		s0.4-5.1,1.3-7.5c0.9-2.4,2.2-4.5,3.9-6.3c1.7-1.8,3.9-3.2,6.4-4.3c2.5-1.1,5.4-1.6,8.6-1.6c3.2,0,6.1,0.5,8.6,1.6
		c2.5,1.1,4.6,2.5,6.3,4.3c1.7,1.8,3,3.9,4,6.3c0.9,2.4,1.4,4.9,1.4,7.5s-0.4,5.1-1.3,7.5c-0.9,2.4-2.2,4.5-3.9,6.3
		c-1.7,1.8-3.9,3.2-6.4,4.3C214.5,52.8,211.7,53.3,208.4,53.3z M200,33.7c0,3,0.8,5.4,2.4,7.2s3.6,2.7,6,2.7c1.2,0,2.3-0.2,3.3-0.7
		c1-0.5,1.9-1.2,2.6-2c0.7-0.9,1.3-1.9,1.8-3.1c0.4-1.2,0.6-2.6,0.6-4c0-3-0.8-5.4-2.4-7.2c-1.6-1.8-3.6-2.7-6-2.7
		c-1.2,0-2.3,0.2-3.3,0.7c-1,0.5-1.9,1.2-2.7,2c-0.7,0.9-1.3,1.9-1.8,3.1C200.2,30.9,200,32.3,200,33.7z"/>
</g>
</svg>
