<?xml version="1.0" encoding="iso-8859-1"?>
<!-- Generator: Adobe Illustrator 19.0.0, SVG Export Plug-In . SVG Version: 6.00 Build 0)  -->
<svg version="1.1" id="Capa_1" xmlns="http://www.w3.org/2000/svg" xmlns:xlink="http://www.w3.org/1999/xlink" x="0px" y="0px"
	 viewBox="0 0 512 512" style="enable-background:new 0 0 512 512;" xml:space="preserve">
<g>
	<path style="fill:#FEDF63;" d="M149.285,232.708l-31.202-37.545l13.234-46.973l-45.335,18.068l-25.328-16.915
		c-0.636,4.228-0.97,8.554-0.97,12.959c0,30.784,16.113,57.788,40.352,73.09l0.478-0.757
		C118.842,233.907,131.497,233.407,149.285,232.708z"/>
	<path style="fill:#FEDF63;" d="M298.794,143.356l-8.26-48.112l34.958-34.069l-48.301-7.012l-9.382-19.183
		c-13.658,16.772-21.852,38.172-21.852,61.489c0,9.445,1.348,18.574,3.855,27.21l5.773-3.035
		C271.817,129.174,283.023,135.066,298.794,143.356z"/>
	<path style="fill:#FEDF63;" d="M437.546,275.906l16.91-45.785l47.303-12.035l-38.324-30.223l0.793-12.164
		c-32.299,6.295-58.892,28.54-71.246,58.207l18.505,0.731C421.276,250.147,428.037,260.844,437.546,275.906z"/>
</g>
<path d="M393.779,289.649c0-5.513-4.475-9.988-9.988-9.988s-9.988,4.475-9.988,9.988s4.475,9.988,9.988,9.988
	S393.779,295.163,393.779,289.649z"/>
<path d="M255.946,159.806c-5.513,0-9.988,4.475-9.988,9.988c0,5.513,4.475,9.988,9.988,9.988c5.513,0,9.988-4.475,9.988-9.988
	C265.934,164.281,261.459,159.806,255.946,159.806z"/>
<path d="M118.942,289.649c0,5.513,4.465,9.988,9.988,9.988c5.513,0,9.988-4.475,9.988-9.988s-4.475-9.988-9.988-9.988
	C123.406,279.661,118.942,284.136,118.942,289.649z"/>
<path d="M334.991,58.09c-1.176-3.617-4.302-6.251-8.064-6.798l-43.082-6.253L264.558,5.601C262.882,2.173,259.401,0,255.586,0
	c-3.814,0-7.297,2.173-8.972,5.6l-19.287,39.437l-43.081,6.253c-3.763,0.546-6.889,3.182-8.064,6.798
	c-1.175,3.617-0.195,7.586,2.528,10.24l31.197,30.403l-7.362,42.936c-0.643,3.746,0.898,7.534,3.974,9.768
	c3.059,2.222,7.135,2.539,10.518,0.76l38.55-20.268l38.56,20.268c3.365,1.769,7.443,1.474,10.518-0.761
	c3.075-2.235,4.615-6.023,3.972-9.77l-7.371-42.934l31.195-30.402C335.186,65.674,336.166,61.705,334.991,58.09z M283.562,88.091
	c-2.354,2.295-3.43,5.602-2.873,8.843l4.835,28.163l-25.292-13.295c-2.911-1.529-6.387-1.529-9.295,0.001l-25.284,13.294
	l4.829-28.165c0.556-3.24-0.519-6.546-2.873-8.841l-20.46-19.94l28.268-4.103c3.267-0.474,6.088-2.532,7.538-5.496l12.631-25.829
	l12.631,25.829c1.45,2.965,4.271,5.022,7.538,5.496l28.268,4.103L283.562,88.091z"/>
<path d="M0.473,220.161c0.79,3.719,3.623,6.666,7.307,7.604l42.215,10.74l15.091,40.861c1.317,3.567,4.545,6.076,8.326,6.473
	c3.819,0.4,7.479-1.417,9.489-4.6l23.256-36.831c15.615-0.62,27.481-1.089,43.52-1.719c3.799-0.149,7.184-2.443,8.731-5.916
	c1.547-3.473,0.988-7.524-1.442-10.447l-27.846-33.506l11.811-41.919c1.031-3.66-0.105-7.587-2.93-10.131
	c-2.825-2.543-6.85-3.264-10.381-1.856l-40.457,16.124l-36.224-24.191c-3.163-2.111-7.248-2.244-10.54-0.345
	c-3.293,1.901-5.221,5.506-4.973,9.301l2.835,43.47l-34.2,26.97C1.073,212.598-0.317,216.443,0.473,220.161z M54.752,195.705
	c2.581-2.037,3.996-5.212,3.782-8.493l-1.86-28.515l23.76,15.868c2.734,1.826,6.191,2.189,9.245,0.973l26.536-10.575l-7.746,27.494
	c-0.891,3.164-0.169,6.564,1.933,9.093l18.265,21.976c-9.017,0.356-17.81,0.704-28.548,1.132c-3.284,0.131-6.293,1.869-8.048,4.647
	l-15.258,24.159l-9.899-26.802c-1.139-3.083-3.721-5.409-6.907-6.219l-27.69-7.045L54.752,195.705z"/>
<path d="M507.944,210.243l-34.2-26.971l2.834-43.47c0.248-3.793-1.681-7.399-4.973-9.3c-3.294-1.901-7.379-1.767-10.541,0.345
	l-36.224,24.191l-40.458-16.124c-3.534-1.407-7.556-0.687-10.381,1.856c-2.826,2.544-3.961,6.471-2.93,10.131l11.81,41.919
	l-27.845,33.506c-2.431,2.924-2.989,6.974-1.442,10.446c1.546,3.474,4.931,5.767,8.729,5.917l43.521,1.72
	c4.723,7.484,8.805,13.947,13.015,20.612l10.241,16.217c2.004,3.173,5.657,5.002,9.49,4.601c3.78-0.398,7.009-2.906,8.326-6.473
	l15.09-40.861l42.216-10.74c3.684-0.938,6.517-3.885,7.306-7.604C512.318,216.443,510.929,212.598,507.944,210.243z
	 M451.992,220.441c-3.185,0.811-5.767,3.136-6.907,6.219l-9.899,26.803c-4.819-7.632-9.516-15.068-15.253-24.159
	c-1.755-2.782-4.766-4.521-8.053-4.65l-28.548-1.128l18.266-21.98c2.101-2.528,2.824-5.929,1.933-9.093l-7.746-27.494l26.536,10.576
	c3.053,1.217,6.51,0.854,9.245-0.973l23.76-15.868l-1.859,28.515c-0.215,3.281,1.2,6.456,3.781,8.492l22.433,17.692L451.992,220.441
	z"/>
<path d="M245.958,209.746v251.695c0,5.516,4.473,9.988,9.988,9.988s9.988-4.472,9.988-9.988V209.746
	c0-5.516-4.473-9.988-9.988-9.988S245.958,204.23,245.958,209.746z"/>
<path d="M395.777,59.927c5.515,0,9.988-4.472,9.988-9.988v-9.988h9.988c5.515,0,9.988-4.472,9.988-9.988s-4.473-9.988-9.988-9.988
	h-9.988V9.988c0-5.516-4.473-9.988-9.988-9.988s-9.988,4.472-9.988,9.988v9.988h-9.988c-5.515,0-9.988,4.472-9.988,9.988
	s4.473,9.988,9.988,9.988h9.988v9.988C385.789,55.456,390.261,59.927,395.777,59.927z"/>
<path d="M116.115,39.952c-5.516,0-9.988,4.472-9.988,9.988v9.988h-9.988c-5.516,0-9.988,4.472-9.988,9.988
	c0,5.516,4.472,9.988,9.988,9.988h9.988v9.988c0,5.516,4.472,9.988,9.988,9.988c5.516,0,9.988-4.472,9.988-9.988v-9.988h9.988
	c5.516,0,9.988-4.472,9.988-9.988c0-5.516-4.472-9.988-9.988-9.988h-9.988V49.94C126.103,44.423,121.631,39.952,116.115,39.952z"/>
<path d="M361.197,310.735c-4.301-3.453-10.589-2.764-14.041,1.538c-35.77,44.571-55.254,131.841-55.254,189.12v0.619
	c0,5.515,4.473,9.988,9.988,9.988s9.988-4.473,9.988-9.988v-0.619c0-55.667,19.023-136.949,50.857-176.617
	C366.188,320.474,365.5,314.188,361.197,310.735z"/>
<path d="M149.183,309.026c-4.269,3.493-4.899,9.785-1.406,14.055c32.697,39.967,52.237,122.047,52.237,178.312v0.619
	c0,5.515,4.472,9.988,9.988,9.988s9.988-4.473,9.988-9.988v-0.619c0-57.682-19.865-145.874-56.751-190.961
	C159.745,306.163,153.452,305.535,149.183,309.026z"/>
<g>
</g>
<g>
</g>
<g>
</g>
<g>
</g>
<g>
</g>
<g>
</g>
<g>
</g>
<g>
</g>
<g>
</g>
<g>
</g>
<g>
</g>
<g>
</g>
<g>
</g>
<g>
</g>
<g>
</g>
</svg>
