<?xml version="1.0"?>
<svg xmlns="http://www.w3.org/2000/svg" xmlns:xlink="http://www.w3.org/1999/xlink" version="1.1" id="Capa_1" x="0px"
     y="0px" viewBox="0 0 512 512" style="enable-background:new 0 0 512 512;" xml:space="preserve"><g><path style="fill:#F46F60" d="M256,0C185.308,0,121.307,28.654,74.981,74.981l54.752,94.784l82.165,42.133  c11.287-11.287,26.879-18.268,44.102-18.268c34.446,0,62.37,27.924,62.37,62.37c0,17.223-6.981,32.815-18.268,44.102l47.654,87.686  l89.263,49.231C483.346,390.693,512,326.692,512,256C512,114.615,397.385,0,256,0z" data-original="#29262E" class="" data-old_color="#29262E"/><path
    style="fill:#FDB0A8"
    d="M256,318.37c-34.446,0-62.37-27.924-62.37-62.37c0-17.223,6.981-32.815,18.268-44.102L74.981,74.981  C28.654,121.308,0,185.308,0,256c0,141.385,114.615,256,256,256c70.692,0,134.692-28.654,181.019-74.981L300.102,300.102  C288.815,311.389,273.223,318.37,256,318.37z"
    data-original="#433F4A" class="" data-old_color="#433F4A"/><path style="fill:#DCE4EC;"
                                                                     d="M256,224.107c17.614,0,31.893,14.279,31.893,31.893c0,8.807-3.57,16.78-9.341,22.552l6.857,46.889  l45.686,5.654c19.239-19.239,31.155-45.802,31.155-75.095c0-58.586-47.664-106.25-106.25-106.25  c-29.293,0-55.855,11.916-75.095,31.155l10.981,51.013l41.563,1.531C239.22,227.677,247.193,224.107,256,224.107z"
                                                                     data-original="#DCE4EC" class=""/><path
    style="fill:#F7F7F8"
    d="M278.552,278.552c-5.771,5.771-13.745,9.341-22.552,9.341c-17.614,0-31.893-14.279-31.893-31.893  c0-8.807,3.57-16.78,9.341-22.552l-52.543-52.543c-19.239,19.24-31.155,45.802-31.155,75.095c0,58.586,47.664,106.25,106.25,106.25  c29.293,0,55.855-11.916,75.095-31.155L278.552,278.552z"
    data-original="#F7F7F8" class="active-path" data-old_color="#F7F7F8"/></g> </svg>
